<svg width="370" height="45" viewBox="0 0 370 45" fill="none" xmlns="http://www.w3.org/2000/svg">
<rect x="0.5" y="0.5" width="369" height="44" rx="22" stroke="#E7E5F4"/>
<path d="M123.528 24.992C123.528 25.5467 123.395 26.064 123.128 26.544C122.861 27.0133 122.456 27.392 121.912 27.68C121.368 27.968 120.701 28.112 119.912 28.112C119.144 28.112 118.456 27.9787 117.848 27.712C117.24 27.4347 116.755 27.0507 116.392 26.56C116.029 26.0693 115.821 25.504 115.768 24.864H117.72C117.773 25.3547 117.981 25.776 118.344 26.128C118.717 26.48 119.213 26.656 119.832 26.656C120.387 26.656 120.813 26.5067 121.112 26.208C121.421 25.9093 121.576 25.5253 121.576 25.056C121.576 24.6507 121.464 24.32 121.24 24.064C121.016 23.7973 120.739 23.5893 120.408 23.44C120.077 23.2907 119.624 23.12 119.048 22.928C118.344 22.704 117.768 22.48 117.32 22.256C116.883 22.032 116.509 21.7067 116.2 21.28C115.891 20.8533 115.736 20.2933 115.736 19.6C115.736 18.992 115.885 18.4587 116.184 18C116.483 17.5413 116.909 17.1893 117.464 16.944C118.019 16.688 118.659 16.56 119.384 16.56C120.536 16.56 121.448 16.8373 122.12 17.392C122.803 17.9467 123.192 18.672 123.288 19.568H121.32C121.245 19.1413 121.043 18.7787 120.712 18.48C120.392 18.1707 119.949 18.016 119.384 18.016C118.872 18.016 118.461 18.1493 118.152 18.416C117.843 18.672 117.688 19.0453 117.688 19.536C117.688 19.92 117.795 20.24 118.008 20.496C118.221 20.7413 118.488 20.9387 118.808 21.088C119.139 21.2267 119.587 21.392 120.152 21.584C120.867 21.808 121.448 22.0373 121.896 22.272C122.355 22.496 122.739 22.8267 123.048 23.264C123.368 23.7013 123.528 24.2773 123.528 24.992ZM125.098 16.624C125.098 16.3147 125.205 16.0587 125.418 15.856C125.631 15.6533 125.914 15.552 126.266 15.552C126.618 15.552 126.901 15.6533 127.114 15.856C127.338 16.0587 127.45 16.3147 127.45 16.624C127.45 16.9333 127.338 17.184 127.114 17.376C126.901 17.568 126.618 17.664 126.266 17.664C125.914 17.664 125.631 17.568 125.418 17.376C125.205 17.184 125.098 16.9333 125.098 16.624ZM127.178 19.184V28H125.354V19.184H127.178ZM132.921 19.072C133.721 19.072 134.404 19.2693 134.969 19.664C135.535 20.0587 135.935 20.5813 136.169 21.232V19.184H137.993V28.096C137.993 28.9173 137.823 29.6427 137.481 30.272C137.151 30.912 136.671 31.4133 136.041 31.776C135.412 32.1387 134.665 32.32 133.801 32.32C132.564 32.32 131.561 32.0267 130.793 31.44C130.036 30.8533 129.561 30.0587 129.369 29.056H131.177C131.327 29.5787 131.615 29.984 132.041 30.272C132.468 30.5707 133.012 30.72 133.673 30.72C134.399 30.72 134.996 30.496 135.465 30.048C135.935 29.6 136.169 28.9493 136.169 28.096V25.952C135.935 26.6027 135.535 27.1253 134.969 27.52C134.404 27.9147 133.721 28.112 132.921 28.112C132.153 28.112 131.465 27.9307 130.857 27.568C130.26 27.2053 129.791 26.6827 129.449 26C129.108 25.3173 128.937 24.512 128.937 23.584C128.937 22.6667 129.108 21.8667 129.449 21.184C129.791 20.5013 130.26 19.9787 130.857 19.616C131.465 19.2533 132.153 19.072 132.921 19.072ZM133.481 20.672C132.671 20.672 132.02 20.9333 131.529 21.456C131.049 21.968 130.809 22.6773 130.809 23.584C130.809 24.4907 131.049 25.2053 131.529 25.728C132.02 26.24 132.671 26.496 133.481 26.496C133.993 26.496 134.452 26.3787 134.857 26.144C135.263 25.8987 135.583 25.5573 135.817 25.12C136.052 24.6827 136.169 24.1707 136.169 23.584C136.169 23.008 136.052 22.5013 135.817 22.064C135.583 21.616 135.263 21.2747 134.857 21.04C134.452 20.7947 133.993 20.672 133.481 20.672ZM145.11 19.04C146.134 19.04 146.955 19.3707 147.574 20.032C148.193 20.6933 148.502 21.6373 148.502 22.864V28H146.678V23.056C146.678 22.2667 146.475 21.6587 146.07 21.232C145.665 20.7947 145.11 20.576 144.406 20.576C143.681 20.576 143.099 20.8107 142.662 21.28C142.225 21.7387 142.006 22.416 142.006 23.312V28H140.182V19.184H142.006V21.12C142.241 20.4587 142.635 19.9467 143.19 19.584C143.745 19.2213 144.385 19.04 145.11 19.04ZM156.209 16.704V28H154.385V16.704H156.209ZM163.345 19.04C164.369 19.04 165.19 19.3707 165.809 20.032C166.427 20.6933 166.737 21.6373 166.737 22.864V28H164.913V23.056C164.913 22.2667 164.71 21.6587 164.305 21.232C163.899 20.7947 163.345 20.576 162.641 20.576C161.915 20.576 161.334 20.8107 160.897 21.28C160.459 21.7387 160.241 22.416 160.241 23.312V28H158.417V19.184H160.241V21.12C160.475 20.4587 160.87 19.9467 161.424 19.584C161.979 19.2213 162.619 19.04 163.345 19.04ZM184.972 19.184L182.524 28H180.508L178.332 21.184L176.124 28H174.124L171.676 19.184H173.516L175.196 26.32L177.404 19.184H179.324L181.564 26.32L183.244 19.184H184.972ZM185.957 16.624C185.957 16.3147 186.064 16.0587 186.277 15.856C186.491 15.6533 186.773 15.552 187.125 15.552C187.477 15.552 187.76 15.6533 187.973 15.856C188.197 16.0587 188.309 16.3147 188.309 16.624C188.309 16.9333 188.197 17.184 187.973 17.376C187.76 17.568 187.477 17.664 187.125 17.664C186.773 17.664 186.491 17.568 186.277 17.376C186.064 17.184 185.957 16.9333 185.957 16.624ZM188.037 19.184V28H186.213V19.184H188.037ZM194.677 26.416V28H193.557C192.618 28 191.903 27.776 191.413 27.328C190.933 26.8693 190.693 26.112 190.693 25.056V20.736H189.429V19.184H190.693V16.992H192.533V19.184H194.661V20.736H192.533V25.088C192.533 25.5893 192.623 25.936 192.805 26.128C192.997 26.32 193.327 26.416 193.797 26.416H194.677ZM201.313 19.04C202.337 19.04 203.159 19.3707 203.777 20.032C204.396 20.6933 204.705 21.6373 204.705 22.864V28H202.881V23.056C202.881 22.2667 202.679 21.6587 202.273 21.232C201.868 20.7947 201.313 20.576 200.609 20.576C199.884 20.576 199.303 20.8107 198.865 21.28C198.428 21.7387 198.209 22.416 198.209 23.312V28H196.385V16.16H198.209V21.12C198.444 20.4587 198.839 19.9467 199.393 19.584C199.948 19.2213 200.588 19.04 201.313 19.04ZM215.756 16.608C217.1 16.608 218.22 16.9387 219.116 17.6C220.012 18.2613 220.604 19.1627 220.892 20.304H218.972C218.727 19.696 218.322 19.2107 217.756 18.848C217.202 18.4853 216.54 18.304 215.772 18.304C215.068 18.304 214.434 18.4693 213.868 18.8C213.314 19.1307 212.876 19.6 212.556 20.208C212.247 20.816 212.092 21.5307 212.092 22.352C212.092 23.216 212.252 23.9573 212.572 24.576C212.892 25.1947 213.34 25.6693 213.916 26C214.503 26.32 215.18 26.48 215.948 26.48C216.887 26.48 217.692 26.192 218.364 25.616C219.036 25.0293 219.442 24.2293 219.58 23.216H215.436V21.872H221.116V23.616C220.988 24.448 220.69 25.2053 220.22 25.888C219.762 26.56 219.148 27.0987 218.38 27.504C217.623 27.9093 216.754 28.112 215.772 28.112C214.674 28.112 213.703 27.8667 212.86 27.376C212.018 26.8853 211.367 26.208 210.908 25.344C210.45 24.4693 210.22 23.472 210.22 22.352C210.22 21.232 210.45 20.24 210.908 19.376C211.367 18.5013 212.012 17.824 212.844 17.344C213.687 16.8533 214.658 16.608 215.756 16.608ZM226.995 19.072C227.849 19.072 228.617 19.2533 229.299 19.616C229.982 19.9787 230.515 20.5013 230.899 21.184C231.283 21.8667 231.475 22.6667 231.475 23.584C231.475 24.512 231.283 25.3173 230.899 26C230.515 26.6827 229.982 27.2053 229.299 27.568C228.617 27.9307 227.849 28.112 226.995 28.112C226.142 28.112 225.374 27.9307 224.691 27.568C224.019 27.2053 223.486 26.6827 223.091 26C222.707 25.3067 222.515 24.5013 222.515 23.584C222.515 22.6667 222.707 21.8667 223.091 21.184C223.486 20.5013 224.019 19.9787 224.691 19.616C225.374 19.2533 226.142 19.072 226.995 19.072ZM226.995 20.656C226.526 20.656 226.094 20.7627 225.699 20.976C225.305 21.1893 224.985 21.52 224.739 21.968C224.505 22.4053 224.387 22.944 224.387 23.584C224.387 24.2347 224.505 24.7787 224.739 25.216C224.985 25.6533 225.305 25.9787 225.699 26.192C226.094 26.4053 226.526 26.512 226.995 26.512C227.465 26.512 227.897 26.4053 228.291 26.192C228.686 25.9787 229.001 25.6533 229.235 25.216C229.481 24.7787 229.603 24.2347 229.603 23.584C229.603 22.944 229.481 22.4053 229.235 21.968C229.001 21.52 228.686 21.1893 228.291 20.976C227.897 20.7627 227.465 20.656 226.995 20.656ZM237.261 19.072C238.114 19.072 238.882 19.2533 239.565 19.616C240.248 19.9787 240.781 20.5013 241.165 21.184C241.549 21.8667 241.741 22.6667 241.741 23.584C241.741 24.512 241.549 25.3173 241.165 26C240.781 26.6827 240.248 27.2053 239.565 27.568C238.882 27.9307 238.114 28.112 237.261 28.112C236.408 28.112 235.64 27.9307 234.957 27.568C234.285 27.2053 233.752 26.6827 233.357 26C232.973 25.3067 232.781 24.5013 232.781 23.584C232.781 22.6667 232.973 21.8667 233.357 21.184C233.752 20.5013 234.285 19.9787 234.957 19.616C235.64 19.2533 236.408 19.072 237.261 19.072ZM237.261 20.656C236.792 20.656 236.36 20.7627 235.965 20.976C235.57 21.1893 235.25 21.52 235.005 21.968C234.77 22.4053 234.653 22.944 234.653 23.584C234.653 24.2347 234.77 24.7787 235.005 25.216C235.25 25.6533 235.57 25.9787 235.965 26.192C236.36 26.4053 236.792 26.512 237.261 26.512C237.73 26.512 238.162 26.4053 238.557 26.192C238.952 25.9787 239.266 25.6533 239.501 25.216C239.746 24.7787 239.869 24.2347 239.869 23.584C239.869 22.944 239.746 22.4053 239.501 21.968C239.266 21.52 238.952 21.1893 238.557 20.976C238.162 20.7627 237.73 20.656 237.261 20.656ZM247.031 19.072C247.831 19.072 248.513 19.2693 249.079 19.664C249.644 20.0587 250.044 20.5813 250.279 21.232V19.184H252.103V28.096C252.103 28.9173 251.932 29.6427 251.591 30.272C251.26 30.912 250.78 31.4133 250.151 31.776C249.521 32.1387 248.775 32.32 247.911 32.32C246.673 32.32 245.671 32.0267 244.903 31.44C244.145 30.8533 243.671 30.0587 243.479 29.056H245.287C245.436 29.5787 245.724 29.984 246.151 30.272C246.577 30.5707 247.121 30.72 247.783 30.72C248.508 30.72 249.105 30.496 249.575 30.048C250.044 29.6 250.279 28.9493 250.279 28.096V25.952C250.044 26.6027 249.644 27.1253 249.079 27.52C248.513 27.9147 247.831 28.112 247.031 28.112C246.263 28.112 245.575 27.9307 244.967 27.568C244.369 27.2053 243.9 26.6827 243.559 26C243.217 25.3173 243.047 24.512 243.047 23.584C243.047 22.6667 243.217 21.8667 243.559 21.184C243.9 20.5013 244.369 19.9787 244.967 19.616C245.575 19.2533 246.263 19.072 247.031 19.072ZM247.591 20.672C246.78 20.672 246.129 20.9333 245.639 21.456C245.159 21.968 244.919 22.6773 244.919 23.584C244.919 24.4907 245.159 25.2053 245.639 25.728C246.129 26.24 246.78 26.496 247.591 26.496C248.103 26.496 248.561 26.3787 248.967 26.144C249.372 25.8987 249.692 25.5573 249.927 25.12C250.161 24.6827 250.279 24.1707 250.279 23.584C250.279 23.008 250.161 22.5013 249.927 22.064C249.692 21.616 249.372 21.2747 248.967 21.04C248.561 20.7947 248.103 20.672 247.591 20.672ZM256.116 16.16V28H254.292V16.16H256.116ZM266.515 23.168C266.515 23.4667 266.493 23.728 266.451 23.952H259.667C259.699 24.8587 259.949 25.5307 260.419 25.968C260.888 26.4053 261.469 26.624 262.163 26.624C262.771 26.624 263.283 26.4693 263.699 26.16C264.125 25.8507 264.387 25.44 264.483 24.928H266.435C266.317 25.5467 266.072 26.096 265.699 26.576C265.325 27.056 264.84 27.4347 264.243 27.712C263.645 27.9787 262.979 28.112 262.243 28.112C261.389 28.112 260.632 27.9307 259.971 27.568C259.32 27.2053 258.808 26.6827 258.435 26C258.061 25.3173 257.875 24.512 257.875 23.584C257.875 22.6667 258.061 21.8667 258.435 21.184C258.808 20.5013 259.32 19.9787 259.971 19.616C260.632 19.2533 261.389 19.072 262.243 19.072C263.107 19.072 263.859 19.2533 264.499 19.616C265.149 19.968 265.645 20.4587 265.987 21.088C266.339 21.7067 266.515 22.4 266.515 23.168ZM264.675 23.12C264.696 22.544 264.595 22.064 264.371 21.68C264.157 21.2853 263.859 20.9973 263.475 20.816C263.101 20.624 262.691 20.528 262.243 20.528C261.528 20.528 260.931 20.7467 260.451 21.184C259.971 21.6213 259.709 22.2667 259.667 23.12H264.675Z" fill="#211B3D"/>
<path d="M91.6875 22C91.6875 21.0091 91.9605 20.0809 92.4348 19.286V15.9146H89.0634C87.7253 17.6525 87 19.7704 87 22C87 24.2296 87.7253 26.3475 89.0634 28.0853H92.4348V24.7139C91.9605 23.9191 91.6875 22.9909 91.6875 22Z" fill="#FBBD00"/>
<path d="M97 27.3125L94.6562 29.6562L97 32C99.2296 32 101.348 31.2747 103.085 29.9366V26.5688H99.7175C98.9158 27.0448 97.9836 27.3125 97 27.3125Z" fill="#0F9D58"/>
<path d="M92.4348 24.714L89.0634 28.0854C89.3283 28.4294 89.6168 28.7589 89.929 29.0711C91.8177 30.9598 94.3289 32 97 32V27.3125C95.0616 27.3125 93.3626 26.2688 92.4348 24.714Z" fill="#31AA52"/>
<path d="M107 22C107 21.3916 106.945 20.7821 106.836 20.1884L106.748 19.708H97V24.3955H101.744C101.284 25.3119 100.575 26.0596 99.7175 26.5688L103.085 29.9366C103.429 29.6717 103.759 29.3832 104.071 29.0711C105.96 27.1823 107 24.6711 107 22Z" fill="#3C79E6"/>
<path d="M100.757 18.2435L101.171 18.6578L104.485 15.3432L104.071 14.9289C102.182 13.0402 99.6711 12 97 12L94.6562 14.3438L97 16.6875C98.419 16.6875 99.7531 17.2401 100.757 18.2435Z" fill="#CF2D48"/>
<path d="M97 16.6875V12C94.3289 12 91.8177 13.0402 89.9289 14.9289C89.6168 15.2411 89.3283 15.5705 89.0634 15.9146L92.4348 19.2861C93.3626 17.7312 95.0616 16.6875 97 16.6875Z" fill="#EB4132"/>
</svg>
